# xmcd
#
# Track frame offsets: 
#        150
#        18265
#        33292
#        54214
#        70702
#        88477
#        100002
#        114317
#        132227
#        149275
#        163827
#        178352
#        198147
#        213437
#        236457
#        253920
#        271760
#        292500
#        310830
#
# Disc length: 4281 seconds
#
# Revision: 0
# Processed by: cddbd v1.4PL0 Copyright (c) Steve Scherf et al.
# Submitted via: ExactAudioCopy v0.90b4
#
DISCID=0510b713
DTITLE=Various Artist - Hurricane! - Florida Blues Guitars
DYEAR=1999
DGENRE=
TTITLE0=Alex Taylor -  Practice What You Preach
TTITLE1=Ace Moreland - Grip of the Grape
TTITLE2=Floyd Miles and Friends (incl. Allman and Betts) - Goin' Back To D
TTITLE2=aytona
TTITLE3=Warren King - Hurricane!
TTITLE4=Smokehouse - Town Crier
TTITLE5=Ernie Lancaster - Gatorslapped
TTITLE6=Ace Moreland (Randall Hall guitar)/ The Blues For Cryin' Out L
TTITLE6=oud
TTITLE7=Chicago Bob Nelson - Been DOwn So Long
TTITLE8=James Peterson - Takin' Inventory
TTITLE9=Alex Taylor - Tequila Quicksand
TTITLE10=Hugh Taylor - Tuff Enuff
TTITLE11=Dr. Hector and The Groove Injectors - Southern Fried Groove
TTITLE12=Sonny Rhodes - Hide That Wine
TTITLE13=Tony Coleman - I Forgot To Remember (To Forget About You)
TTITLE14=Ernie Lancaster - Roy Boy
TTITLE15=Dr. Hector and The Groove Injectors - Bad Connection
TTITLE16=Floyd Miles and Friends  (Dickie Betts, Chris Anderson guitar) 
TTITLE16=/ Sick and Tired
TTITLE17=James Peterson (Bryan Bassett guitar) - I Fell In Love With A
TTITLE17=Prostitute
TTITLE18=Bill Wharton and The Ingradients - Dancing in the Coals
EXTD=
EXTT0=
EXTT1=
EXTT2=
EXTT3=
EXTT4=
EXTT5=
EXTT6=
EXTT7=
EXTT8=
EXTT9=
EXTT10=
EXTT11=
EXTT12=
EXTT13=
EXTT14=
EXTT15=
EXTT16=
EXTT17=
EXTT18=
PLAYORDER=
